<?xml version="1.0" encoding="UTF-8"?><svg id="Layer_2" xmlns="http://www.w3.org/2000/svg" viewBox="0 0 72.3 91.22"><defs><style>.cls-1{fill:#5388a4;}</style></defs><g id="Layer_1-2"><path class="cls-1" d="M62.06,0c-7.19,24.72-13.78,47.36-20.76,71.34,12.01,2.81,21.24,4.97,31,7.26-.17,8.06-4.49,11.08-11.86,7.74-14.14-6.4-27.52-4.51-40.6,2.43-7.29,3.86-12.47,3.96-14.06-5.68-.22-1.33-.42-3.09-1.31-3.8-9.66-7.72-1.45-8.61,3.83-8.87,7.09-.36,12.28-3.15,11.57-10.12-2.09-20.58,13.32-31.43,23.99-44.75C48.45,9.82,55.16,5.78,62.07,.01h0Z"/></g></svg>