<?xml version="1.0" encoding="UTF-8"?><svg id="Layer_2" xmlns="http://www.w3.org/2000/svg" viewBox="0 0 70.22 99.78"><defs><style>.cls-1{fill:#5388a4;}</style></defs><g id="Layer_1-2"><path class="cls-1" d="M58.68,0c-6.5,13.12-11.48,23.16-17.96,36.24,11.84-.8,20.71-1.39,29.5-1.99-.23,10.99-3.01,13.31-13.67,11.23-11.36-2.22-21.12,2.54-26.33,13.16-6.66,13.57-13.12,27.24-19.79,41.13-9.82-10.28-9.58-34.16,.41-48.73-3.2-1.61-6.31-3.18-10.84-5.47,3.3-1.78,5.41-3.56,7.79-4.1,8.05-1.83,12.53-6.25,13.46-14.76,.29-2.59,2.66-5.7,4.97-7.18C35.99,13.26,46.1,7.5,58.68,0h0Z"/></g></svg>