<?xml version="1.0" encoding="UTF-8"?><svg id="Layer_2" xmlns="http://www.w3.org/2000/svg" viewBox="0 0 109.38 104.5"><defs><style>.cls-1{fill:#5388a4;}</style></defs><g id="Layer_1-2"><path class="cls-1" d="M73.23,75.87c7.3,8.22,16.75,9.08,27.08,8.24,2.92-.24,6.04,2.13,9.07,3.3-2.34,5.73-4.42,11.61-7.39,16.99-.31,.57-5.97-1.53-8.97-2.8-4.5-1.89-8.65-5.01-13.3-6.08-14.09-3.27-28.02-2.51-42.46,.21-10.8,2.03-22.5-.72-37.26-1.53,9.37-6.49,16.22-11.24,24.05-16.67-3.52-4.01-7.03-8.01-12.62-14.4,6.48,0,11.33-.96,15.64,.17,17.06,4.46,18.81,4.42,26.48-11.79C62.98,31.56,80.7,19.08,94.95,3.48c1.38-1.51,4.21-1.71,8.91-3.48-4.22,29.06-7.1,56.13-30.63,75.87Z"/></g></svg>