<?xml version="1.0" encoding="UTF-8"?><svg id="Layer_2" xmlns="http://www.w3.org/2000/svg" viewBox="0 0 98.65 87.3"><defs><style>.cls-1{fill:#5388a4;}</style></defs><g id="Layer_1-2"><path class="cls-1" d="M80.78,.01c-4.42,4.21-8.21,9.58-13.39,12.41-15.03,8.22-13.53,21.29-11.84,37.48,12.86-1.01,25.43-2,37.99-2.98,3.72,.91,8.13,4.47,2.24,9.86-5.53,5.06-9.85,13.7-19.68,6.74-6.9-4.88-23.4-3.19-28.03,3.55-1.62,2.36-.63,7.2,.43,10.5,.88,2.76,3.6,4.94,4.35,9.73-17.06-7.82-34.13-15.63-52.85-24.21,2.74-1.92,5.45-4.65,8.73-5.99,12.71-5.21,16.98-11.04,14.82-24.58-1.26-7.92,1.89-12.13,7.8-16.16C45.87,6.46,61.81,.64,80.77,0h.01Z"/></g></svg>