<?xml version="1.0" encoding="UTF-8"?><svg id="Layer_1" xmlns="http://www.w3.org/2000/svg" viewBox="0 0 1530 978"><defs><style>.cls-1{fill:#b6eceb;}</style></defs><path class="cls-1" d="M-3.79,581.35c0-39.34,0-78.68,0-118.02,12.5,4.61,26.02,6.34,38.34,3.16,12.39-3.2,24.47-3.17,36.71-3.07,16.83,.13,33.51,.17,50.49,2.95,15.5,2.54,32.13-2.9,48.24-2.72,24.67,.26,49.28-2.06,74.13,2.82,13.34,2.62,28.18,.13,42.54-1.58,22.97-2.74,46.65,.79,70.04,1.2,16.23,.29,32.47-.23,48.71-.34,23.97-.17,47.93-.38,71.9-.42,16.82-.03,33.64,.53,50.45,.25,21.49-.36,43.29-3.86,64.37-1.28,20.84,2.55,40.68,2.75,61.52,.1,19.8-2.51,40.28,.57,60.47,.92,16.81,.29,33.62,.35,50.43,.22,23.39-.19,46.92-2.41,70.11-.45,19.51,1.65,38.44,1.74,57.95,0,21.87-1.96,44.1,.23,66.18,.42,16.81,.14,33.62,.04,50.44-.09,23.39-.18,46.9-2.02,70.13-.21,16.88,1.31,33.17,1.34,50.07-.17,23.92-2.14,48.3-1.73,72.27,.21,16.89,1.37,33.16,1.5,50.08-.27,21.25-2.21,43.07-1.77,64.39,.23,18.2,1.71,35.76,1.78,54.02-.3,25.07-2.85,50.34-.84,75.78,1.27,32.85,2.73,66.31-1.75,99.5-3.12-.03,19.91-.07,39.81-.1,59.72-3.28-.07-6.93-1.11-9.76-.03-11.42,4.39-22.34,1.48-33.93,.71-23.85-1.58-47.97-3.32-72.14,1.54-17.28,3.48-34.4,6.63-53.46,2.74-20.43-4.16-42.68,.06-64.09,1.4-16.74,1.05-33.38,4-50.12,4.7-8.84,.37-17.78-2.99-26.73-3.41-22.74-1.07-45,1.53-67.35,6.82-13,3.08-27.93,2.85-41.01-.14-25.54-5.85-50.2-2.08-75.14,1.79-2.46,.38-4.81,1.99-6.95,3.41-.49,.32,0,3.27,.21,3.29,3.25,.29,6.74-.41,9.77,.5,25.7,7.69,52.53,6.09,77.73,2.39,20.73-3.04,40.04-.56,59.45,2.21,23.39,3.34,45.96,3.43,69.38,.08,17.11-2.44,35.37-1.32,52.48,1.77,23.23,4.2,46.92,8.84,69.57,4.16,32.27-6.65,63.18,.2,94.65,2.45,10.32,.74,20.66,2.36,30.94,2.02,12.22-.4,24.38-2.48,36.57-3.83l.16,95.04c-12.01,2.05-23.95,4.71-36.04,5.94-8.86,.9-17.91-.23-26.87-.19-23.96,.11-48.06-1.14-71.84,1.03-19.96,1.83-39.96,8.35-59.82,3.71-30.25-7.07-59.08-.39-88.24,5.29-1.16,.23-2.17,1.21-3.25,1.84,1.11,.54,2.18,1.37,3.35,1.58,7.58,1.36,15.16,2.85,22.8,3.78,12.17,1.48,24.9,5.36,36.48,3.26,30.67-5.56,61.52-4.43,91.81-1.93,29.95,2.47,59.33,5.23,89.04-.58,5.05-.99,10.5-.46,15.71,.01,8.95,.82,17.85,2.15,26.78,3.27,0,53.97-.01,107.95-.02,161.92-40.7-.12-81.39-.25-122.09-.35-3.94,0-7.96-.3-11.79,.4-28.57,5.19-56.58,8.87-86.32,4.61-30.07-4.3-61.31-2.64-91.55,3.47-24.59,4.96-48.67,4.05-73.39,.45-16.58-2.41-33.93-.76-50.83,.48-16.67,1.22-33.18,5.73-49.82,6.04-23.35,.44-46.74-.76-70.16-2.36-28.02-1.92-56.6,4.15-84.93,6.82-1.22,.12-2.38,.83-3.57,1.27,1.43,.76,2.8,1.96,4.31,2.21,12.07,1.95,24.11,4.56,36.27,5.36,21.44,1.41,43.53,5.16,64.3,1.68,38.03-6.38,75.06-.69,112.51,2.06,18.79,1.38,37.98,4.32,56.4,2,29.28-3.7,57.96-4.8,87.11,.35,15.89,2.8,32.25,4.33,48.37,4.14,34.53-.4,69.04-2.47,103.58-3.42,6.33-.17,12.69,2.02,19.08,2.55,21.96,1.81,43.93,4.3,65.93,4.69,15.46,.27,30.97-2.47,46.45-3.86,.15,32.92,.29,65.84,.44,98.77-5.87,.27-11.79,.15-17.6,.88-17.2,2.16-34.31,5.93-51.56,6.66-17.4,.74-34.8,.02-52.44-2.68-16.79-2.56-34.64-.53-52.33,1.85-23.53,3.17-48.03-1.04-72.12-1.6-14.92-.35-29.86,.2-44.79,.32-21.34,.17-42.68,.42-64.03,.44-16.82,.02-33.64-.35-50.46-.35-22.66,0-45.31,.27-67.97,.3-18.13,.02-36.27-.45-54.39-.16-24.14,.38-48.47,3.52-72.34,1.36-24.3-2.2-30.25-2.54-53.54-.03-19.89,2.14-40.32-.87-60.51-1.22-16.81-.3-33.64-.03-50.46-.04-22.66-.02-45.31-.09-67.97-.08-20.76,.01-41.52,.17-62.28,.15-22.66-.02-45.31-.23-67.97-.23-16.82,0-33.64,.31-50.46,.29-21.34-.02-42.68-.34-64.02-.35-15.5,0-31.01,.31-46.51,.42-23.4,.17-46.79,.38-70.19,.4-20.02,.02-40.04-.28-60.07-.28-22.08,0-44.17,.44-66.24,.14-17.56-.24-35.39-3.53-52.61-1.45-24.43,2.94-41.95,2.76-65.37,0-32.95-3.88-65.9,1.21-98.67,5.37-.35,.04-.57,1.12-.85,1.71H.15c-1.31-1.31-2.63-2.62-3.94-3.93,0-32.78-.21-96.78-.21-129.56,11.8,.08,24.63,28.71,35.46,31.99,26.3,7.98,51.45-.74,77.07-1.85,14.88-.65,30.43-5.08,44.44-2.07,29.52,6.32,57.87,1.43,86.76-2.11,16.07-1.96,32.8-4.22,48.55-1.83,24.06,3.65,47.52,5.33,71.24-.6,4.74-1.18,9.52-2.19,14.29-3.28-2.52-7.67-10.49-5.4-15.69-8.09-3.65-1.89-9-.6-13.59-.6-28.86,.01-57.72,.24-86.58-.03-6.34-.06-12.84-1.26-18.97-2.97-17.13-4.79-35-7.64-52.02-4.13-28.1,5.8-55.2,2.2-82.89-1.51-19.17-2.57-39.14-4.12-58.14-1.57-17.12,2.3-33.26,3.11-49.73-1.61v-74.75c21.05-4.08,41.7-3.73,63.29-1.06,21.45,2.65,43.76,3,66-1.98,19.75-4.43,39.89-6.67,61.3-2.11,20.67,4.4,43.12,2.15,64.56,.2,5.87-.53,15.6,.96,19.89-7.37-5.88-1.57-11.7-4.17-17.65-4.5-19.37-1.08-38.98-3.21-58.13-1.27-13.64,1.38-26.38,3.19-40.02-.42-11.72-3.1-24.13-4.36-36.31-4.9-40.95-1.83-82.14,3.37-122.92-4.11v-129.82c20.37,.03,41.51-3.39,60.92,.94,25.25,5.62,49.5,2.63,73.28-2.04,19.79-3.89,39.78-5.21,58.29-1.69,27.19,5.17,52.72,.25,79.02-2.67,17.43-1.94,35.52-4.02,52.62-1.43,20.9,3.17,40.8,3.33,61.63-.23,20.39-3.48,41.4-3.71,62.17-4.39,7.55-.25,15.24,3.62,22.79,3.38,22.75-.73,45.46-2.5,68.18-4.07,1.46-.1,3.65-1.74,3.93-3.02,.24-1.09-1.62-3.73-2.79-3.88-12.82-1.71-25.66-4.01-38.55-4.32-25.61-.61-51.27,.51-76.87-.25-14.82-.44-29.85-1.89-44.24-5.23-10.55-2.45-20.14-1.12-30.49-.51-23.32,1.36-47.06,2.03-70.15-.82-20.65-2.55-41.42-8.34-61.82-4.35-24.96,4.88-48.8,4-72.87-3.02-3.67-1.07-7.67-1.76-11.46-1.59-20.12,.92-40.46-3.05-60.39,3.4-4.68,1.52-10.42,.29-15.59-.31-19.21-2.25-38.4-4.76-57.59-7.17Z"/></svg>