<?xml version="1.0" encoding="UTF-8"?><svg id="clouds" xmlns="http://www.w3.org/2000/svg" viewBox="0 0 1530 978"><defs><style>.cls-1{fill:#fcfdfd;}.cls-2{fill:#fbfdfd;}.cls-3{fill:#fdfdfd;}.cls-4{fill:#fdfefe;}</style></defs><path class="cls-4" d="M944.64,5.76c9.05-4.6,19.86-2.55,26.99,4.68,3.98,4.03,9.69,6.39,15.57,7.97,11.07,2.97,25.6-3.23,34.44,4.2,12.35,10.39,19.16-2.38,19.47,20.4,.04,3.28,13.71,15.93,12.89,18.99-2.32,8.64-7.04,10.24-19.15,17.05-8.23,4.63-13.93,12.13-23.51,16.28-21.78,9.45-43.15,5.89-65.03,4.21-8.11-.63-16.47-.45-24.51,.72-19.67,2.86-38.56,10.41-58.95,9.21-5.56-.33-8.81-1.57-12.58-6.43-4.98-6.44-12.38-11.3-19.46-15.69-2.52-1.56-7.24-.21-10.78,.57-10.19,2.25-22.38-1.07-26.06-7.48-4.08-7.12-.74-21,6.66-28.25,7.3-7.15,14.99-14,21.56-21.78,5.82-6.88,13.31-10.06,20.77-7.17,9.29,3.6,15.9,1.58,22.61-4.33,14.39-12.68,29.89-15.49,48.46-8.62,10.65,3.94,17.68,8.42,21.09,3.4,2.1-3.11,4.81-5.78,8.23-7.33,.43-.19,.86-.4,1.29-.62Z"/><path class="cls-3" d="M409.18,126.45c14.33-4.3,29.39-5.57,44.23-3.66s33.12,3.35,39.49,4.3c11.51,1.72,23.5,1.59,34.39-3.65,10-4.81,19.68-2.52,26.25,4.15,10.93,11.1,23.64,13.19,37.59,11.6,13.76-1.56,24.15,2.56,31.69,14.28,1.49,2.32,4.26,4.84,6.79,5.29,10.1,1.82,20.32,3.1,30.54,4.12,9.88,.98,17.07,5.94,20.27,15.19,2.28,6.6,1.73,13.87-1.17,20.22-3.92,8.61-9.86,17.79-20.29,23.32-15.33,8.12-30.92,12.02-49.63,9.06-22.81-3.61-46.54-1.55-67.81,10.65-10.89,6.25-22.76,8.1-35.51,8.68-27.68,1.25-53.35-6.38-79.63-12.53-4.78-1.12-8.55-4.87-14.39-1.03-2.97,1.95-8.57-.11-12.98-.36-12.28-.7-25.54-4.72-36.63-1.43-25.81,7.66-47.77-.64-70.38-10.23l-37.21-32.23c-13.07-11.32-5.32-33.21,11.97-33.16,.42,0,.84,.01,1.27,.03,6.17,.31,10.9-1.46,16.06-5.3,5.47-4.06,12.75-5.76,19.33-8.26,26.01-9.89,64.58-4.67,90.61-14.51l15.18-4.55Z"/><path class="cls-1" d="M1424.36,234.16c-10.73-1.96-21.85-2.8-32.08-6.26-7.38-2.49-12.93-2.39-20.32,.16-9.55,3.29-20.19,3.44-30.36,4.96-5.07,.76-10.11,1.82-15.21,2.28-5.71,.52-11.49,1-17.19,.61-5.71-.39-11.32-2.02-17.01-2.85-3.21-.47-7.28,.78-9.61-.78-19.36-12.88-39.86-8.02-60.01-3.89-22.22,4.56-48.96-4.58-62.44-22.21-3.2-4.19-1.91-6.63,.79-10.11,6.95-8.97,17.64-8.79,25.05-5.36,13.06,6.05,22.38-.13,32.63-4.98,9.65-4.56,20.6-6.1,28.67-14.67,2.54-2.7,10.03-.54,15.21-1.06,16.09-1.61,32.73,3.95,48.35-3.61,6.87-3.33,14.09-6.18,20.4-10.38,10.44-6.94,19.82-15.53,30.52-21.99,6.34-3.83,14.22-5.54,21.64-7.09,9.41-1.97,19.14-2.42,28.57-4.33,3.52-.71,6.42-4.06,9.88-5.55,8.22-3.53,16.38-7.86,25.02-9.6,7.47-1.5,16.96-2.27,22.96,1.16,4.55,2.6,4.3,12.69,7.46,18.78,4.44,8.55,9.88,16.61,15.21,24.68,9.26,14,29.37,27.34,19.5,41.9-5.78,8.54-23.85,2.73-30,11-12.39,16.65-35.28,29.2-57.64,29.16Z"/><path class="cls-2" d="M134.41,45.79c.16-13.52,17.62-23.99,29.06-16.87,9.97,6.21,19.13,6.83,28.71-.22,2.57-1.89,5.75-2.96,8.31-4.86,9.76-7.21,18.29-6.01,27.37,1.94,10.87,9.52,26.48,10.65,38.98,2.74,6.09-3.85,10.49-4.38,15.47,.68,.91,.93,1.89,1.84,2.98,2.55,18.51,12.19,19.06,18.68,3.6,34.26-5.69,5.73-10.86,8.96-18.55,3.26-8.48-6.3-18.65-4.89-28.32-4.49-3.6,.15-8.44,1.18-10.44,3.65-11.76,14.47-25.94,8.38-36.82,1.85-11.55-6.93-21.61-6.52-33.13-3.49-17.81,4.68-27.43-2.8-27.21-20.98Z"/></svg>