<?xml version="1.0" encoding="UTF-8"?><svg id="Layer_1" xmlns="http://www.w3.org/2000/svg" viewBox="0 0 1881.52 466.59"><defs><style>.cls-1{fill:#5388a4;}</style></defs><path class="cls-1" d="M1516.93,423.16c-5.05-1.29-9.53-2.43-17.24-4.4,6.55-4.02,11.05-8.25,16.32-9.71,10.43-2.89,14.55-9.6,15.07-19.52,1.39-26.5,14.66-48.48,26.84-70.88,1.13-2.08,2.22-4.18,3.98-7.5,14.66,31.57,8.09,60.22,1.18,91.48,10.85-2.92,20.15-4.73,28.9-8.01,6.95-2.61,9.48-.95,10.34,6.03,1.54,12.52-1.52,19.74-13.18,24.18-3.81,1.45-9.98-.46-13.93-2.78-10.45-6.13-19.24-4.84-24.85,6.07-8.8,17.11-22.92,28.27-39.29,37.06-2.7,1.45-6.42,.99-9.67,1.41,0-3.26-.97-6.93,.18-9.72,4.47-10.79,9.61-21.29,15.34-33.71Z"/><path class="cls-1" d="M1838.95,333.68c-5.93-8.3-11.86-16.6-17.78-24.9-8.98-12.59-19.92-24.42-14.02-42.19,.48-1.43-3.38-5.17-5.93-6.52-3.25-1.72-7.2-2.1-11.36-3.2,1.52-14.39,17.24-6.75,22.74-14.56-5.16-13.6-5.01-13.89,9.68-19.16,5.19-1.86,10.26-4.26,15.59-5.5,3.69-.86,7.74-.17,12.01-.17-3.68,7.9-7.52,13.38-8.69,19.39-1.27,6.53,1.91,10.87,9.74,7.56,6.04-2.55,11.97-5.58,18.25-7.27,2.97-.8,7.98-.14,9.78,1.89,6.1,6.87,.51,29.13-8.11,32.25-3.22,1.17-7.64-.47-11.39-1.36-5.65-1.33-11.2-3.12-16.79-4.72-1.21,7.51-4.02,15.19-3.24,22.48,1.06,9.96,5.71,19.51,7.12,29.47,.72,5.14-2.24,10.79-3.54,16.21-1.35,.09-2.7,.19-4.05,.28Z"/><path class="cls-1" d="M359.94,273.22c7.3,8.22,16.75,9.08,27.08,8.24,2.92-.24,6.04,2.13,9.07,3.3-2.34,5.73-4.42,11.61-7.39,16.99-.31,.57-5.97-1.53-8.97-2.8-4.5-1.89-8.65-5.01-13.3-6.08-14.09-3.27-28.02-2.51-42.46,.21-10.8,2.03-22.5-.72-37.26-1.53,9.37-6.49,16.22-11.24,24.05-16.67-3.52-4.01-7.03-8.01-12.62-14.4,6.48,0,11.33-.96,15.64,.17,17.06,4.46,18.81,4.42,26.48-11.79,9.43-19.95,27.15-32.43,41.4-48.03,1.38-1.51,4.21-1.71,8.91-3.48-4.22,29.06-7.1,56.13-30.63,75.87Z"/><path class="cls-1" d="M902.81,163.24c-4.42,4.21-8.21,9.58-13.39,12.41-15.03,8.22-13.53,21.29-11.84,37.48,12.86-1.01,25.43-2,37.99-2.98,3.72,.91,8.13,4.47,2.24,9.86-5.53,5.06-9.85,13.7-19.68,6.74-6.9-4.88-23.4-3.19-28.03,3.55-1.62,2.36-.63,7.2,.43,10.5,.88,2.76,3.6,4.94,4.35,9.73-17.06-7.82-34.13-15.63-52.85-24.21,2.74-1.92,5.45-4.65,8.73-5.99,12.71-5.21,16.98-11.04,14.82-24.58-1.26-7.92,1.89-12.13,7.8-16.16,14.52-9.9,30.46-15.72,49.42-16.36Z"/><path class="cls-1" d="M1572.78,92.86c-11.23-10.88-21.28-20.61-32.7-31.67,3.61-1.64,6.5-3.6,9.66-4.26,6.54-1.37,11-6.23,9.29-11.48-4.89-14.99,5.49-21.72,14.3-28.74,7.87-6.27,17.17-10.75,26.98-16.71-6.3,18.58-20.83,33.16-13.41,54.88,3.27-.19,8.27-1.07,13.14-.59,4.79,.47,9.45,2.32,14.17,3.56-1.28,3.5-1.87,9.44-3.97,10.03-5.29,1.48-11.33,1.17-16.92,.45-11.82-1.51-15.51,2.22-14.45,14.21,.23,2.59-3.12,5.5-6.09,10.32Z"/><path class="cls-1" d="M.64,92.08c-.43,.17,1.47-1.33,3.22-1.16,9.77,.91,13.65-3.82,14.79-13.04,.35-2.81,3.82-6.76,6.57-7.48,10.58-2.78,21.44-4.46,35.2-7.14-6.88,5.74-12.13,8.77-15.31,13.26-2.16,3.05-2.04,8.24-1.54,12.3,.12,.99,5.81,1.94,8.87,1.76,5.42-.31,10.78-1.5,16.33-2.35,3.82,10.09-4,13.83-9.34,17.59-2.27,1.6-8.04-.11-11.33-1.92-9.84-5.42-20.09-1.68-24.56,10.47-1.99,5.41-1.89,11.54-3.35,17.19-1.69,6.56-4.04,12.95-7.67,19.11C2.99,138.14-1.63,125.36,.52,110.51c.75-5.2,.12-10.59,.12-18.43Z"/><path class="cls-1" d="M1290.27,293.61c-7.19,24.72-13.78,47.36-20.76,71.34,12.01,2.81,21.24,4.97,31,7.26-.17,8.06-4.49,11.08-11.86,7.74-14.14-6.4-27.52-4.51-40.6,2.43-7.29,3.86-12.47,3.96-14.06-5.68-.22-1.33-.42-3.09-1.31-3.8-9.66-7.72-1.45-8.61,3.83-8.87,7.09-.36,12.28-3.15,11.57-10.12-2.09-20.58,13.32-31.43,23.99-44.75,4.59-5.73,11.3-9.77,18.21-15.54Z"/><path class="cls-1" d="M1167.22,89.05c-6.5,13.12-11.48,23.16-17.96,36.24,11.84-.8,20.71-1.39,29.5-1.99-.23,10.99-3.01,13.31-13.67,11.23-11.36-2.22-21.12,2.54-26.33,13.16-6.66,13.57-13.12,27.24-19.79,41.13-9.82-10.28-9.58-34.16,.41-48.73-3.2-1.61-6.31-3.18-10.84-5.47,3.3-1.78,5.41-3.56,7.79-4.1,8.05-1.83,12.53-6.25,13.46-14.76,.29-2.59,2.66-5.7,4.97-7.18,9.77-6.28,19.88-12.04,32.46-19.54Z"/></svg>