<?xml version="1.0" encoding="utf-8"?>
<!-- Generator: Adobe Illustrator 26.3.1, SVG Export Plug-In . SVG Version: 6.00 Build 0)  -->
<svg version="1.1" id="Layer_1" xmlns="http://www.w3.org/2000/svg" xmlns:xlink="http://www.w3.org/1999/xlink" x="0px" y="0px"
	 viewBox="0 0 1881.5 466.6" style="enable-background:new 0 0 1881.5 466.6;" xml:space="preserve">
<style type="text/css">
	.st0{fill:#5388A4;}
	.st1{fill:#F4D59B;}
	.st2{fill:#E29C34;}
	.st3{fill:#F8F8F6;}
	.st4{fill:#1E4350;}
</style>
<path class="st0" d="M1516.9,423.2c-5.1-1.3-9.5-2.4-17.2-4.4c6.6-4,11.1-8.2,16.3-9.7c10.4-2.9,14.6-9.6,15.1-19.5
	c1.4-26.5,14.7-48.5,26.8-70.9c1.1-2.1,2.2-4.2,4-7.5c14.7,31.6,8.1,60.2,1.2,91.5c10.8-2.9,20.2-4.7,28.9-8c6.9-2.6,9.5-1,10.3,6
	c1.5,12.5-1.5,19.7-13.2,24.2c-3.8,1.5-10-0.5-13.9-2.8c-10.4-6.1-19.2-4.8-24.8,6.1c-8.8,17.1-22.9,28.3-39.3,37.1
	c-2.7,1.5-6.4,1-9.7,1.4c0-3.3-1-6.9,0.2-9.7C1506,446.1,1511.2,435.6,1516.9,423.2L1516.9,423.2z"/>
<path class="st0" d="M1838.9,333.7c-5.9-8.3-11.9-16.6-17.8-24.9c-9-12.6-19.9-24.4-14-42.2c0.5-1.4-3.4-5.2-5.9-6.5
	c-3.2-1.7-7.2-2.1-11.4-3.2c1.5-14.4,17.2-6.8,22.7-14.6c-5.2-13.6-5-13.9,9.7-19.2c5.2-1.9,10.3-4.3,15.6-5.5
	c3.7-0.9,7.7-0.2,12-0.2c-3.7,7.9-7.5,13.4-8.7,19.4c-1.3,6.5,1.9,10.9,9.7,7.6c6-2.6,12-5.6,18.2-7.3c3-0.8,8-0.1,9.8,1.9
	c6.1,6.9,0.5,29.1-8.1,32.2c-3.2,1.2-7.6-0.5-11.4-1.4c-5.7-1.3-11.2-3.1-16.8-4.7c-1.2,7.5-4,15.2-3.2,22.5
	c1.1,10,5.7,19.5,7.1,29.5c0.7,5.1-2.2,10.8-3.5,16.2C1841.7,333.5,1840.3,333.6,1838.9,333.7L1838.9,333.7z"/>
<path class="st0" d="M359.9,273.2c7.3,8.2,16.8,9.1,27.1,8.2c2.9-0.2,6,2.1,9.1,3.3c-2.3,5.7-4.4,11.6-7.4,17c-0.3,0.6-6-1.5-9-2.8
	c-4.5-1.9-8.6-5-13.3-6.1c-14.1-3.3-28-2.5-42.5,0.2c-10.8,2-22.5-0.7-37.3-1.5c9.4-6.5,16.2-11.2,24-16.7c-3.5-4-7-8-12.6-14.4
	c6.5,0,11.3-1,15.6,0.2c17.1,4.5,18.8,4.4,26.5-11.8c9.4-19.9,27.1-32.4,41.4-48c1.4-1.5,4.2-1.7,8.9-3.5
	C386.4,226.4,383.5,253.5,359.9,273.2z"/>
<path class="st0" d="M902.8,163.2c-4.4,4.2-8.2,9.6-13.4,12.4c-15,8.2-13.5,21.3-11.8,37.5c12.9-1,25.4-2,38-3
	c3.7,0.9,8.1,4.5,2.2,9.9c-5.5,5.1-9.8,13.7-19.7,6.7c-6.9-4.9-23.4-3.2-28,3.6c-1.6,2.4-0.6,7.2,0.4,10.5c0.9,2.8,3.6,4.9,4.3,9.7
	c-17.1-7.8-34.1-15.6-52.8-24.2c2.7-1.9,5.5-4.6,8.7-6c12.7-5.2,17-11,14.8-24.6c-1.3-7.9,1.9-12.1,7.8-16.2
	C867.9,169.7,883.8,163.9,902.8,163.2L902.8,163.2z"/>
<path class="st0" d="M1572.8,92.9c-11.2-10.9-21.3-20.6-32.7-31.7c3.6-1.6,6.5-3.6,9.7-4.3c6.5-1.4,11-6.2,9.3-11.5
	c-4.9-15,5.5-21.7,14.3-28.7c7.9-6.3,17.2-10.8,27-16.7c-6.3,18.6-20.8,33.2-13.4,54.9c3.3-0.2,8.3-1.1,13.1-0.6
	c4.8,0.5,9.4,2.3,14.2,3.6c-1.3,3.5-1.9,9.4-4,10c-5.3,1.5-11.3,1.2-16.9,0.4c-11.8-1.5-15.5,2.2-14.4,14.2
	C1579.1,85.1,1575.8,88,1572.8,92.9L1572.8,92.9z"/>
<path class="st0" d="M0.6,92.1c-0.4,0.2,1.5-1.3,3.2-1.2c9.8,0.9,13.6-3.8,14.8-13c0.4-2.8,3.8-6.8,6.6-7.5
	c10.6-2.8,21.4-4.5,35.2-7.1C53.5,69,48.3,72,45.1,76.5c-2.2,3.1-2,8.2-1.5,12.3c0.1,1,5.8,1.9,8.9,1.8c5.4-0.3,10.8-1.5,16.3-2.3
	c3.8,10.1-4,13.8-9.3,17.6c-2.3,1.6-8-0.1-11.3-1.9c-9.8-5.4-20.1-1.7-24.6,10.5c-2,5.4-1.9,11.5-3.4,17.2c-1.7,6.6-4,12.9-7.7,19.1
	c-9.5-12.5-14.1-25.3-12-40.2C1.3,105.3,0.6,99.9,0.6,92.1z"/>
<path class="st0" d="M1290.3,293.6c-7.2,24.7-13.8,47.4-20.8,71.3c12,2.8,21.2,5,31,7.3c-0.2,8.1-4.5,11.1-11.9,7.7
	c-14.1-6.4-27.5-4.5-40.6,2.4c-7.3,3.9-12.5,4-14.1-5.7c-0.2-1.3-0.4-3.1-1.3-3.8c-9.7-7.7-1.4-8.6,3.8-8.9
	c7.1-0.4,12.3-3.1,11.6-10.1c-2.1-20.6,13.3-31.4,24-44.8C1276.7,303.4,1283.4,299.4,1290.3,293.6L1290.3,293.6z"/>
<path class="st0" d="M1167.2,89.1c-6.5,13.1-11.5,23.2-18,36.2c11.8-0.8,20.7-1.4,29.5-2c-0.2,11-3,13.3-13.7,11.2
	c-11.4-2.2-21.1,2.5-26.3,13.2c-6.7,13.6-13.1,27.2-19.8,41.1c-9.8-10.3-9.6-34.2,0.4-48.7c-3.2-1.6-6.3-3.2-10.8-5.5
	c3.3-1.8,5.4-3.6,7.8-4.1c8.1-1.8,12.5-6.2,13.5-14.8c0.3-2.6,2.7-5.7,5-7.2C1144.5,102.3,1154.6,96.5,1167.2,89.1L1167.2,89.1z"/>
<g id="Pp1p9B.tif">
	<g>
		<path class="st1" d="M664-154c-9,0.7-18,1.4-27,2.1c-3.4-6.9-9.3-10.6-16.7-11.8c-1.4-0.2-3.7,0-4.3,0.9c-0.8,1.2-0.9,3.5-0.3,4.9
			c0.9,2.1,2.7,3.7,4.1,5.6c-21.6-0.8-42.8-3.4-62.5-13.3c-6-3-10.7-7.2-13-13.6c0.7-1.9,1.5-3.9,2.2-5.8
			c10.4-11.5,24.8-14.8,38.9-17.8c10.3-2.2,20.9-2.8,31.4-4.2c8.7-0.1,17.3-0.2,26-0.3c5,0.3,10,0.7,14.9,1c1.5,0.3,3.1,0.6,4.6,0.9
			c6.1,1.2,12.5,1.8,18.4,3.8c7.2,2.4,13.8,6.7,21,8.9c6.4,1.9,13.4,2.1,20.1,3.1c6.2-0.5,12.4-1.1,18.6-1.6
			c-0.2,7.6-0.5,15.3-0.7,22.9c-6.3-0.4-12.6-0.8-18.9-1.2c-2.7,0-5.3,0.1-8,0.1c-0.5,0.3-0.9,0.5-1.4,0.8c-0.6,0-1.1,0.1-1.7,0.1
			c-4.6,1.5-9.1,2.9-13.7,4.4c-8.1,3.1-16.2,6.2-24.4,9.2c-1.8,0.6-3.9,0.4-5.9,0.5 M590.9-177.6c-0.3-7-5.2-15.4-14.3-15.5
			c-6-0.1-11.5,6.1-11.5,12.9c0,6.6,5.4,13,11.3,12.8C585-167.6,591.2-171.6,590.9-177.6z"/>
		<path class="st2" d="M739.6-168.2c0.2-7.6,0.5-15.3,0.7-22.9c8.1-4.7,16-10,24.4-14c5.9-2.8,7-1.5,7.9,5
			c1.9,14.3,1.9,28.5-3.1,42.2c-2.5,6.8-3.3,7.5-10.1,4.5C751.8-156.7,744.1-160.4,739.6-168.2z"/>
		<path class="st2" d="M721.8-189.5c-6.7-1-13.7-1.2-20.1-3.1c-7.2-2.2-13.8-6.5-21-8.9c-5.9-2-12.2-2.6-18.4-3.8
			c-1.5-0.3-3.1-0.6-4.6-0.9c1.9-2.3,3.4-5.1,5.7-6.7c1.9-1.2,5.1-1.8,7.2-1.1c16,5.4,31.9,11.3,47.9,16.8
			C723-195.7,721.5-192.4,721.8-189.5z"/>
		<path class="st2" d="M619.7-152.3c-1.4-1.8-3.2-3.5-4.1-5.6c-0.6-1.4-0.5-3.7,0.3-4.9c0.6-0.9,2.9-1.1,4.3-0.9
			c7.5,1.1,13.3,4.8,16.7,11.8c0.5,3.4,0.9,6.7,1.5,11.3C630.8-143.3,624.8-147,619.7-152.3z"/>
		<path class="st2" d="M642.8-207.3c-8.7,0.1-17.3,0.2-26,0.3c2.6-5.7,5.2-11.5,8-17.6C631.5-218.2,637.1-212.7,642.8-207.3z"/>
		<path class="st2" d="M712.7-169.3c-0.5,0.3-0.9,0.5-1.4,0.8c-0.6,0-1.1,0.1-1.7,0.1c-4.6,1.5-9.1,2.9-13.7,4.4
			c1.9,1,3.7,2.1,5.6,3.1c4,2.3,9,7.4,11.7,6.4c5.6-2.1,7.5-8.6,7.5-14.9C718.1-169.3,715.4-169.3,712.7-169.3z"/>
		<path class="st3" d="M590.9-177.6c0.3,6-6,10-14.5,10.2c-5.9,0.2-11.3-6.2-11.3-12.8c0-6.8,5.5-13,11.5-12.9
			C585.8-193,590.7-184.5,590.9-177.6z M584.8-180.2c0-4-3.7-7.6-7.7-7.5c-3.7,0.1-7.1,4.3-7.1,8.8c0,3.9,3.1,7.2,6.7,7.3
			C580.6-171.5,584.8-175.9,584.8-180.2z"/>
		<path class="st2" d="M712.7-169.3c-0.5,0.3-0.9,0.5-1.4,0.8C711.8-168.7,712.3-169,712.7-169.3z"/>
		<path class="st4" d="M584.8-180.2c0,4.3-4.1,8.6-8.1,8.6c-3.6-0.1-6.6-3.4-6.7-7.3c0-4.5,3.4-8.7,7.1-8.8
			C581.1-187.8,584.8-184.2,584.8-180.2z"/>
	</g>
</g>
</svg>
