<?xml version="1.0" encoding="utf-8"?>
<!-- Generator: Adobe Illustrator 26.3.1, SVG Export Plug-In . SVG Version: 6.00 Build 0)  -->
<svg version="1.1" id="Layer_1" xmlns="http://www.w3.org/2000/svg" xmlns:xlink="http://www.w3.org/1999/xlink" x="0px" y="0px"
	 viewBox="0 0 216 63" style="enable-background:new 0 0 216 63;" xml:space="preserve">
<style type="text/css">
	.st0{fill:#417D99;}
</style>
<g>
	<g id="Layer_1-2_00000153699765729189700370000016612032246277038228_">
		<path class="st0" d="M94,18c-2.8,5.7-5,10.1-7.8,15.8c5.2-0.3,9-0.6,12.9-0.9c-0.1,4.8-1.3,5.8-6,4.9c-5-1-9.2,1.1-11.5,5.7
			c-2.9,5.9-5.7,11.9-8.6,18c-4.3-4.5-4.2-14.9,0.2-21.3c-1.4-0.7-2.8-1.4-4.7-2.4c1.4-0.8,2.4-1.6,3.4-1.8c3.5-0.8,5.5-2.7,5.9-6.4
			c0.1-1.1,1.2-2.5,2.2-3.1C84,23.8,88.5,21.3,94,18L94,18z"/>
	</g>
</g>
<g>
	<g id="Layer_1-2_00000057119221673308010430000018017832659126940562_">
		<path class="st0" d="M38.2,33.2c3.2,3.6,7.3,4,11.8,3.6c1.3-0.1,2.6,0.9,4,1.4c-1,2.5-1.9,5.1-3.2,7.4c-0.1,0.2-2.6-0.7-3.9-1.2
			c-2-0.8-3.8-2.2-5.8-2.7c-6.2-1.4-12.2-1.1-18.6,0.1c-4.7,0.9-9.8-0.3-16.3-0.7c4.1-2.8,7.1-4.9,10.5-7.3
			c-1.5-1.8-3.1-3.5-5.5-6.3c2.8,0,5-0.4,6.8,0.1c7.5,1.9,8.2,1.9,11.6-5.2c4.1-8.7,11.9-14.2,18.1-21c0.6-0.7,1.8-0.7,3.9-1.5
			C49.7,12.8,48.5,24.6,38.2,33.2z"/>
	</g>
</g>
<g>
	<g id="Layer_1-2_00000046308109667012658300000004565472919213292732_">
		<path class="st0" d="M148.3,10.9c-1.9,1.8-3.6,4.2-5.9,5.4c-6.6,3.6-5.9,9.3-5.2,16.4c5.6-0.4,11.1-0.9,16.6-1.3
			c1.6,0.4,3.6,2,1,4.3c-2.4,2.2-4.3,6-8.6,2.9c-3-2.1-10.2-1.4-12.2,1.6c-0.7,1-0.3,3.1,0.2,4.6c0.4,1.2,1.6,2.2,1.9,4.3
			c-7.5-3.4-14.9-6.8-23.1-10.6c1.2-0.8,2.4-2,3.8-2.6c5.6-2.3,7.4-4.8,6.5-10.7c-0.6-3.5,0.8-5.3,3.4-7.1
			C133.1,13.8,140.1,11.2,148.3,10.9L148.3,10.9L148.3,10.9z"/>
	</g>
</g>
<g>
	<g id="Layer_1-2_00000091012841531088819470000003936068291767613630_">
		<path class="st0" d="M201,5.1c-3.1,10.8-6,20.7-9.1,31.2c5.2,1.2,9.3,2.2,13.5,3.2c-0.1,3.5-2,4.8-5.2,3.4c-6.2-2.8-12-2-17.7,1.1
			c-3.2,1.7-5.4,1.7-6.1-2.5c-0.1-0.6-0.2-1.4-0.6-1.7c-4.2-3.4-0.6-3.8,1.7-3.9c3.1-0.2,5.4-1.4,5.1-4.4c-0.9-9,5.8-13.7,10.5-19.6
			C195,9.4,197.9,7.7,201,5.1L201,5.1L201,5.1z"/>
	</g>
</g>
<g id="y9p7TR.tif">
	
		<image style="overflow:visible;" width="333" height="145" id="Layer_0" xlink:href="A2D85539D37BE290.png"  transform="matrix(1 0 0 1 -77 557)">
	</image>
</g>
</svg>
