<svg width="0" height="0" class="hidden">
  <symbol id="bird-2" xmlns="http://www.w3.org/2000/svg" viewBox="0 0 109.38 104.5">
    <defs></defs>
    <g id="Layer_1-2">
      <path d="M73.23,75.87c7.3,8.22,16.75,9.08,27.08,8.24,2.92-.24,6.04,2.13,9.07,3.3-2.34,5.73-4.42,11.61-7.39,16.99-.31,.57-5.97-1.53-8.97-2.8-4.5-1.89-8.65-5.01-13.3-6.08-14.09-3.27-28.02-2.51-42.46,.21-10.8,2.03-22.5-.72-37.26-1.53,9.37-6.49,16.22-11.24,24.05-16.67-3.52-4.01-7.03-8.01-12.62-14.4,6.48,0,11.33-.96,15.64,.17,17.06,4.46,18.81,4.42,26.48-11.79C62.98,31.56,80.7,19.08,94.95,3.48c1.38-1.51,4.21-1.71,8.91-3.48-4.22,29.06-7.1,56.13-30.63,75.87Z"></path>
    </g>
  </symbol>
  <symbol id="bird-1" xmlns="http://www.w3.org/2000/svg" viewBox="0 0 70.22 99.78">
    <defs></defs>
    <g id="Layer_1-2">
      <path d="M58.68,0c-6.5,13.12-11.48,23.16-17.96,36.24,11.84-.8,20.71-1.39,29.5-1.99-.23,10.99-3.01,13.31-13.67,11.23-11.36-2.22-21.12,2.54-26.33,13.16-6.66,13.57-13.12,27.24-19.79,41.13-9.82-10.28-9.58-34.16,.41-48.73-3.2-1.61-6.31-3.18-10.84-5.47,3.3-1.78,5.41-3.56,7.79-4.1,8.05-1.83,12.53-6.25,13.46-14.76,.29-2.59,2.66-5.7,4.97-7.18C35.99,13.26,46.1,7.5,58.68,0h0Z"></path>
    </g>
  </symbol>
  <symbol id="bird-3" xmlns="http://www.w3.org/2000/svg" viewBox="0 0 98.65 87.3">
    <defs></defs>
    <g id="Layer_1-2">
      <path d="M80.78,.01c-4.42,4.21-8.21,9.58-13.39,12.41-15.03,8.22-13.53,21.29-11.84,37.48,12.86-1.01,25.43-2,37.99-2.98,3.72,.91,8.13,4.47,2.24,9.86-5.53,5.06-9.85,13.7-19.68,6.74-6.9-4.88-23.4-3.19-28.03,3.55-1.62,2.36-.63,7.2,.43,10.5,.88,2.76,3.6,4.94,4.35,9.73-17.06-7.82-34.13-15.63-52.85-24.21,2.74-1.92,5.45-4.65,8.73-5.99,12.71-5.21,16.98-11.04,14.82-24.58-1.26-7.92,1.89-12.13,7.8-16.16C45.87,6.46,61.81,.64,80.77,0h.01Z"></path>
    </g>
  </symbol>
  <symbol id="bird-4" xmlns="http://www.w3.org/2000/svg" viewBox="0 0 72.3 91.22">
    <defs></defs>
    <g id="Layer_1-2">
      <path d="M62.06,0c-7.19,24.72-13.78,47.36-20.76,71.34,12.01,2.81,21.24,4.97,31,7.26-.17,8.06-4.49,11.08-11.86,7.74-14.14-6.4-27.52-4.51-40.6,2.43-7.29,3.86-12.47,3.96-14.06-5.68-.22-1.33-.42-3.09-1.31-3.8-9.66-7.72-1.45-8.61,3.83-8.87,7.09-.36,12.28-3.15,11.57-10.12-2.09-20.58,13.32-31.43,23.99-44.75C48.45,9.82,55.16,5.78,62.07,.01h0Z"></path>
    </g>
  </symbol>
</svg>